# xmcd CD database file
#
# Track frame offsets:
#	150
#	26083
#	51317
#	72456
#	94129
#	114326
#	138384
#	163285
#	186977
#
# Disc length: 2781 seconds
#
# Revision: 0
# Processed by: cddbd v1.5.2PL0 Copyright (c) Steve Scherf et al.
# Submitted via: CDex 1.70beta2
#
DISCID=850adb09
DTITLE=Zevious - Zevious
DYEAR=2008
DGENRE=Jazz
TTITLE0=Avant Clave
TTITLE1=Collider
TTITLE2=Coma Cluster
TTITLE3=iNCITING
TTITLE4=Passtime
TTITLE5=Eclipse
TTITLE6=Hypnogerms
TTITLE7=Uncertain Sheep
TTITLE8=Under the Table
EXTD=YEAR: 2008
EXTT0=
EXTT1=
EXTT2=
EXTT3=
EXTT4=
EXTT5=
EXTT6=
EXTT7=
EXTT8=
PLAYORDER=
